<svg width="182" height="37" viewBox="0 0 182 37" fill="none" xmlns="http://www.w3.org/2000/svg">
<path d="M4.95238 11.0044L9.90476 19.052L4.95238 27.0996L0 19.052L4.95238 11.0044Z" fill="#3537E8"/>
<path d="M12.0715 18.4331L7.11914 10.0759L12.0715 2.02832H22.2858L12.0715 18.4331Z" fill="#3537E8"/>
<path d="M12.3801 19.6714L7.42773 28.0286L12.3801 36.0762H22.5944L12.3801 19.6714Z" fill="#3537E8"/>
<circle cx="54.1664" cy="5.43299" r="4.02381" fill="#3537E8"/>
<circle cx="177.977" cy="32.6713" r="4.02381" fill="#3537E8"/>
<path fill-rule="evenodd" clip-rule="evenodd" d="M32.0457 35.7424C31.9357 35.0195 31.8807 33.9823 31.8807 32.6309V30.1086L36.3595 25.3469L43.7141 36.096C44.7042 35.8603 45.8907 35.7424 47.2736 35.7424H50.8727H50.9981H57.4022L57.4205 11.3139H50.8727V35.6078C50.5812 35.2886 50.2301 34.862 49.8194 34.3281L48.2636 32.1358C47.6822 31.2872 46.8179 29.9514 45.6707 28.1285L40.3668 20.8917L49.6544 11.1091H42.6534L31.8807 22.6832V2.03371H26.1055V35.7424H32.0457ZM67.6252 35.7424C67.5152 35.0195 67.4602 33.9823 67.4602 32.6309V30.1086L71.939 25.3469L79.2936 36.096C80.2836 35.8603 81.4701 35.7424 82.853 35.7424H86.5775C86.2632 35.4124 85.8703 34.941 85.3989 34.3281L83.8431 32.1358C83.2616 31.2872 82.3973 29.9514 81.2501 28.1285L75.9463 20.8917L85.2339 11.1091H78.2328L67.4602 22.6832V2.03371H61.6849V35.7424H67.6252ZM84.2127 18.6052C83.6312 20.1767 83.3405 21.8268 83.3405 23.5554C83.3405 27.1385 84.3699 30.0693 86.4285 32.348C88.6915 34.8467 91.8188 36.096 95.8104 36.096C99.6763 36.096 102.78 34.8231 105.122 32.2773C107.337 29.8729 108.445 26.8399 108.445 23.1783C108.445 19.5167 107.369 16.5387 105.216 14.2443C102.969 11.8399 99.9356 10.6377 96.1168 10.6377C92.2824 10.6377 89.1629 11.9106 86.7585 14.4564C85.6585 15.6351 84.8099 17.018 84.2127 18.6052ZM89.5637 26.2898C89.2337 25.3627 89.0686 24.404 89.0686 23.414C89.0686 21.3868 89.6187 19.666 90.7187 18.2516C91.9288 16.7115 93.6024 15.9415 95.7397 15.9415C97.8455 15.9415 99.5034 16.6644 100.713 18.1102C101.845 19.4617 102.411 21.2375 102.411 23.4376C102.411 25.6062 101.861 27.3663 100.761 28.7178C99.6291 30.1165 98.0812 30.8158 96.1168 30.8158C93.9953 30.8158 92.2824 30.1007 90.978 28.6707C90.3651 28.0106 89.8937 27.217 89.5637 26.2898ZM120.318 10.6377C118.48 10.6377 116.68 11.0934 114.92 12.0049V0.666504H109.145V26.4784C109.145 29.5743 110.229 32.0023 112.398 33.7623C114.331 35.3181 116.79 36.096 119.776 36.096C123.171 36.096 126.007 34.9252 128.286 32.5837C129.74 31.0913 130.748 29.3098 131.311 27.2392C131.79 29.2033 132.68 30.9062 133.983 32.348C136.246 34.8467 139.373 36.096 143.365 36.096C147.231 36.096 150.334 34.8231 152.676 32.2773C154.892 29.8729 156 26.8399 156 23.1783C156 19.5167 154.923 16.5387 152.77 14.2443C150.523 11.8399 147.49 10.6377 143.671 10.6377C139.837 10.6377 136.717 11.9106 134.313 14.4564C133.213 15.6351 132.364 17.018 131.767 18.6052C131.658 18.9001 131.559 19.1977 131.47 19.4982C130.981 17.3773 130.014 15.5317 128.569 13.9614C127.563 12.8928 126.392 12.0756 125.056 11.5099C123.736 10.9284 122.157 10.6377 120.318 10.6377ZM120.083 30.5565C116.641 30.5565 114.92 29.1736 114.92 26.4077V17.9687C115.282 17.6859 115.674 17.4266 116.099 17.1908C117.45 16.4365 118.684 16.0594 119.8 16.0594C121.654 16.0594 123.131 16.5701 124.231 17.5916C125.457 18.7388 126.07 20.4439 126.07 22.7068C126.07 24.9541 125.489 26.832 124.326 28.3407C123.178 29.8179 121.764 30.5565 120.083 30.5565ZM137.118 26.2898C136.788 25.3627 136.623 24.404 136.623 23.414C136.623 21.3868 137.173 19.666 138.273 18.2516C139.483 16.7115 141.157 15.9415 143.294 15.9415C145.4 15.9415 147.058 16.6644 148.268 18.1102C149.399 19.4617 149.965 21.2375 149.965 23.4376C149.965 25.6062 149.415 27.3663 148.315 28.7178C147.183 30.1165 145.635 30.8158 143.671 30.8158C141.55 30.8158 139.837 30.1007 138.532 28.6707C137.919 28.0106 137.448 27.217 137.118 26.2898ZM171.691 28.9771C170.937 30.03 169.546 30.5565 167.519 30.5565C166.938 30.5565 166.427 30.4936 165.987 30.3679C164.62 30.0222 163.936 28.6157 163.936 26.1484V16.5308H170.418V11.1091H163.936V4.39096H158.161V11.1091H154.601C154.586 11.1091 154.578 11.2427 154.578 11.5099V15.14C154.578 15.6115 154.586 16.0751 154.601 16.5308H158.161V27.2327C158.161 30.3443 158.876 32.6309 160.306 34.0924C160.997 34.7995 161.83 35.3103 162.804 35.6246C163.795 35.9389 164.706 36.096 165.539 36.096C166.387 36.096 167.095 36.0567 167.66 35.9782C169.751 35.7267 171.181 35.216 171.951 34.4459L171.88 28.9771H171.691Z" fill="black"/>
</svg>
